<?xml version="1.0" standalone="no"?>
<!DOCTYPE svg PUBLIC "-//W3C//DTD SVG 20010904//EN"
 "http://www.w3.org/TR/2001/REC-SVG-20010904/DTD/svg10.dtd">
<svg version="1.0" xmlns="http://www.w3.org/2000/svg"
 width="1280.000000pt" height="422.000000pt" viewBox="0 0 1280.000000 422.000000"
 preserveAspectRatio="xMidYMid meet">
<metadata>
Created by potrace 1.13, written by Peter Selinger 2001-2015
</metadata>
<g transform="translate(0.000000,422.000000) scale(0.100000,-0.100000)"
fill="#000000" stroke="none">
<path d="M9028 4215 c-2 -1 -91 -6 -198 -9 -107 -4 -215 -9 -240 -11 -25 -2
-97 -6 -160 -10 -63 -3 -140 -8 -170 -10 -30 -3 -86 -7 -125 -10 -38 -3 -90
-7 -115 -10 -25 -3 -79 -7 -120 -10 -41 -3 -88 -7 -105 -9 -16 -2 -64 -7 -105
-10 -41 -4 -86 -9 -100 -11 -14 -2 -54 -6 -90 -10 -36 -4 -76 -8 -90 -10 -14
-2 -47 -6 -75 -9 -59 -7 -120 -14 -175 -21 -22 -3 -59 -7 -82 -10 -114 -14
-134 -17 -148 -20 -8 -3 -40 -7 -70 -10 -30 -3 -95 -12 -145 -20 -49 -8 -106
-16 -125 -19 -43 -6 -97 -14 -170 -26 -30 -5 -70 -12 -87 -15 -18 -3 -45 -7
-60 -9 -29 -5 -200 -34 -243 -41 -14 -3 -97 -18 -185 -35 -88 -17 -171 -32
-185 -34 -21 -3 -341 -68 -402 -82 -33 -7 -63 -14 -118 -25 -30 -6 -118 -26
-195 -44 -291 -68 -370 -87 -385 -90 -156 -35 -818 -217 -1055 -292 -161 -50
-451 -144 -470 -152 -11 -5 -83 -30 -160 -56 -126 -43 -575 -212 -657 -248
-87 -38 -87 -37 2 -31 47 3 123 1 169 -6 162 -22 255 -75 305 -174 26 -49 31
-72 34 -152 l4 -94 -166 0 -166 0 0 39 c0 93 -32 145 -97 157 -47 9 -109 -11
-130 -42 -20 -31 -23 -103 -4 -137 18 -33 97 -88 226 -157 198 -106 287 -176
333 -265 25 -47 27 -58 27 -185 0 -120 -3 -141 -24 -187 -13 -30 -44 -72 -72
-98 -88 -82 -194 -115 -371 -115 -135 0 -198 11 -284 50 -140 63 -210 194
-202 372 l3 63 178 3 177 2 0 -80 c0 -127 35 -170 141 -170 45 0 55 4 85 34
31 31 34 39 34 97 0 63 0 63 -53 113 -29 28 -97 75 -152 105 -234 127 -328
203 -374 301 -22 47 -26 69 -26 150 0 108 17 165 70 235 l33 43 -56 -25 c-258
-115 -706 -350 -851 -445 -14 -10 -33 -21 -41 -25 -8 -4 -19 -11 -25 -15 -5
-4 -52 -36 -104 -71 -113 -75 -121 -80 -195 -137 -32 -25 -71 -54 -85 -65 -94
-70 -303 -280 -373 -375 -338 -454 -214 -855 351 -1140 188 -95 476 -194 716
-246 39 -8 79 -17 90 -20 11 -3 67 -14 125 -25 133 -25 146 -27 195 -34 22 -4
67 -10 100 -15 89 -14 124 -18 190 -25 33 -3 67 -8 75 -10 8 -2 49 -7 90 -10
41 -3 113 -10 160 -15 87 -9 2226 -6 2290 4 19 2 67 7 105 10 86 7 187 16 240
21 22 2 72 7 110 10 39 4 84 8 100 10 17 2 56 6 88 9 31 4 83 8 115 12 31 3
71 7 87 9 17 2 53 7 80 10 77 9 118 15 145 20 14 2 50 7 80 10 30 3 66 7 80
10 14 2 46 7 73 9 26 3 62 8 80 10 17 3 49 8 70 11 45 6 64 9 237 35 74 12
146 23 160 25 14 2 66 11 115 19 50 8 128 21 175 30 47 8 101 17 120 21 19 3
58 10 85 15 28 5 61 11 75 14 91 15 425 82 580 116 102 22 194 42 205 44 11 3
72 17 135 31 63 15 122 28 130 30 127 26 768 196 1060 281 256 75 690 217 972
320 190 68 621 238 648 255 10 6 -13 7 -65 3 -201 -15 -388 49 -464 159 -59
87 -62 114 -59 554 l3 398 29 62 c33 72 95 135 162 164 156 69 423 63 565 -12
113 -61 164 -151 176 -310 l6 -89 -170 0 -171 0 -4 75 c-3 68 -6 78 -35 107
-42 42 -120 50 -171 18 -61 -38 -63 -51 -60 -455 l3 -365 26 -25 c55 -56 164
-52 213 6 25 29 26 36 26 160 l0 129 -65 0 -65 0 0 100 0 100 233 -2 232 -3 0
-240 c0 -275 -7 -310 -76 -389 l-40 -45 98 45 c126 59 410 202 491 248 35 20
66 36 69 36 2 0 23 13 46 29 23 15 47 30 52 32 6 2 36 20 68 39 32 19 66 40
75 45 133 80 391 271 506 375 132 119 266 271 316 359 8 14 19 29 23 32 16 12
86 188 97 247 12 59 9 192 -4 255 -4 15 -17 52 -31 82 -119 271 -473 492
-1033 645 -210 58 -528 121 -722 145 -25 3 -76 9 -115 15 -38 5 -95 12 -125
15 -30 3 -71 8 -90 10 -19 2 -66 7 -105 10 -38 3 -95 7 -125 10 -30 2 -100 7
-155 11 -55 3 -129 8 -165 10 -76 5 -1087 13 -1092 9z m-2286 -1430 c201 -42
288 -143 288 -331 l0 -84 -162 2 -163 3 -6 65 c-3 36 -9 73 -13 83 -19 41
-114 61 -170 36 -35 -16 -60 -72 -53 -122 9 -67 32 -85 307 -238 84 -46 134
-83 186 -134 94 -93 108 -132 102 -294 -3 -103 -7 -125 -31 -173 -67 -137
-204 -201 -432 -201 -330 -1 -484 130 -485 411 l0 72 180 0 180 0 0 -80 c0
-43 5 -90 12 -104 38 -84 193 -84 233 1 22 45 16 110 -14 152 -28 39 -77 72
-244 168 -160 91 -226 140 -272 203 -88 120 -83 329 12 440 58 67 143 112 248
129 80 14 225 12 297 -4z m-2927 -37 c3 -13 57 -306 120 -653 64 -346 118
-636 120 -643 4 -10 -34 -12 -177 -10 l-182 3 -86 588 c-48 323 -89 589 -91
591 -3 3 -45 -263 -94 -590 l-90 -594 -177 0 c-157 0 -178 2 -178 16 0 29 231
1268 240 1292 l10 22 290 0 290 0 5 -22z m1070 11 c6 -8 162 -950 166 -999 1
-13 2 -13 5 0 3 8 40 234 83 502 43 267 82 491 86 497 4 7 92 11 270 11 l263
0 6 -72 c5 -63 27 -1080 26 -1210 l0 -48 -163 0 -164 0 -6 293 c-4 160 -7 429
-8 597 l-1 305 -111 -597 -112 -598 -170 0 -170 0 -110 593 -110 592 -6 -415
c-3 -228 -7 -495 -8 -592 l-1 -178 -165 0 -165 0 0 68 c-1 154 21 1161 26
1210 l5 52 264 0 c175 0 266 -4 270 -11z m2825 -525 c5 -576 3 -549 61 -580
57 -29 144 -10 171 39 10 17 14 146 18 547 l5 525 168 3 168 2 -3 -552 -3
-553 -26 -55 c-68 -143 -207 -210 -434 -210 -228 0 -367 67 -434 209 l-26 56
-3 553 -3 552 168 -2 168 -3 5 -531z m1468 474 c11 -35 79 -269 153 -520 73
-251 135 -456 137 -454 2 2 -1 232 -7 512 -5 279 -8 511 -5 516 3 4 77 8 165
8 l159 0 0 -660 0 -660 -235 0 -234 0 -34 108 c-18 59 -91 299 -163 534 -153
504 -139 522 -126 -167 5 -253 7 -463 5 -467 -2 -5 -76 -8 -164 -8 l-159 0 0
660 0 660 245 0 244 0 19 -62z"/>
</g>
</svg>
